<?xml version="1.0" standalone="no"?>
<!DOCTYPE svg PUBLIC "-//W3C//DTD SVG 20010904//EN"
 "http://www.w3.org/TR/2001/REC-SVG-20010904/DTD/svg10.dtd">
<svg version="1.0" xmlns="http://www.w3.org/2000/svg"
 width="1774.000000pt" height="887.000000pt" viewBox="0 0 1774.000000 887.000000"
 preserveAspectRatio="xMidYMid meet">

<g transform="translate(0.000000,887.000000) scale(0.100000,-0.100000)"
fill="#000000" stroke="none">
<path d="M2625 6299 c-109 -7 -173 -26 -255 -79 -110 -70 -206 -215 -229 -344
-15 -84 -15 -2355 0 -2428 28 -137 129 -273 248 -337 120 -63 73 -61 1206 -61
915 0 1038 2 1086 16 179 53 310 192 348 372 6 31 11 153 11 288 l0 235 -167
-3 c-93 -2 -549 -2 -1015 0 l-848 2 0 1170 0 1170 -72 1 c-40 0 -104 1 -143 2
-38 1 -115 -1 -170 -4z"/>
<path d="M3440 5680 c0 -414 4 -637 11 -672 25 -120 108 -225 217 -276 l57
-27 658 -3 657 -3 0 580 c0 576 0 579 -23 659 -43 148 -126 251 -250 312 -34
16 -86 34 -116 40 -32 6 -287 10 -632 10 l-579 0 0 -620z"/>
<path d="M6290 5005 l0 -1025 705 0 705 0 0 150 0 150 -525 0 -525 0 0 875 0
875 -180 0 -180 0 0 -1025z"/>
<path d="M10735 5630 c0 -220 -1 -400 -3 -400 -1 0 -30 28 -65 63 -34 35 -84
76 -111 92 -207 121 -483 118 -705 -8 -30 -17 -87 -61 -127 -99 -131 -125
-204 -266 -232 -450 -15 -101 -15 -116 2 -224 9 -64 28 -145 41 -180 66 -174
196 -319 358 -399 123 -60 198 -78 327 -78 176 1 311 56 440 180 41 40 77 73
78 73 2 0 2 -48 0 -107 -1 -60 0 -109 5 -110 4 -2 77 -3 162 -3 l155 0 0 1025
0 1025 -163 0 -162 0 0 -400z m-312 -469 c159 -55 280 -201 308 -371 39 -236
-111 -474 -335 -535 -100 -27 -227 -17 -310 24 -242 119 -341 413 -221 653 55
108 140 184 253 224 88 31 222 33 305 5z"/>
<path d="M8428 5460 c-226 -41 -432 -192 -533 -390 -65 -128 -80 -197 -80
-365 1 -128 4 -161 24 -225 77 -251 249 -419 512 -502 65 -20 94 -23 234 -23
140 0 169 3 235 23 110 35 193 79 268 142 60 49 163 170 162 188 -1 4 -62 36
-137 72 l-136 65 -16 -25 c-40 -61 -98 -112 -168 -147 -67 -33 -83 -37 -177
-41 -86 -4 -116 -1 -173 16 -125 39 -227 133 -279 260 -13 31 -24 67 -24 80
l0 22 586 0 587 0 -6 133 c-5 146 -24 222 -83 337 -87 172 -242 298 -439 360
-78 24 -274 36 -357 20z m227 -281 c81 -15 137 -43 200 -101 51 -47 96 -120
110 -179 l7 -27 -184 -6 c-201 -7 -247 -7 -485 1 l-161 5 13 39 c45 125 165
232 300 265 64 16 126 17 200 3z"/>
<path d="M11780 5449 c-137 -37 -240 -99 -341 -206 -150 -159 -222 -354 -206
-562 20 -267 170 -488 413 -607 111 -55 197 -74 335 -74 180 0 319 54 441 170
l58 56 0 -106 c0 -124 -16 -187 -63 -257 -73 -106 -188 -161 -352 -170 -198
-10 -341 51 -413 177 l-27 47 -147 -40 c-82 -22 -148 -45 -148 -51 0 -25 51
-115 94 -168 81 -99 206 -175 351 -212 94 -25 271 -38 368 -27 327 37 542 190
622 442 43 136 46 203 43 909 l-3 665 -157 3 -158 3 0 -39 c0 -22 -3 -66 -6
-98 l-6 -59 -63 60 c-119 116 -256 165 -449 164 -78 0 -133 -6 -186 -20z m375
-281 c64 -16 151 -67 205 -121 173 -173 167 -461 -14 -635 -95 -92 -193 -132
-321 -132 -76 0 -187 31 -249 69 -46 29 -130 120 -155 169 -67 130 -67 293 -1
422 35 68 67 106 131 154 110 83 258 110 404 74z"/>
<path d="M13584 5455 c-223 -49 -423 -203 -519 -399 -55 -111 -74 -184 -82
-301 -9 -153 15 -270 85 -415 28 -58 57 -96 127 -166 77 -78 104 -98 185 -137
162 -78 332 -108 497 -87 253 32 425 132 562 327 22 32 21 53 -2 53 -7 0 -66
25 -132 56 l-120 55 -18 -23 c-71 -89 -143 -143 -230 -170 -236 -73 -474 17
-572 215 -20 40 -38 89 -42 110 l-6 37 608 0 608 0 -6 128 c-7 148 -23 217
-78 327 -77 157 -204 275 -372 347 -131 56 -348 74 -493 43z m295 -280 c35 -9
86 -28 114 -42 85 -47 179 -168 189 -243 l3 -25 -430 0 c-424 0 -430 0 -427
20 12 76 121 209 210 254 95 49 227 62 341 36z"/>
<path d="M15384 5455 c-120 -26 -241 -102 -298 -187 l-35 -52 -3 110 -3 109
-167 3 -168 2 0 -730 0 -730 170 0 170 0 0 418 c0 442 3 469 49 561 34 66 112
138 189 174 63 29 74 31 189 32 l123 0 0 146 c0 144 0 147 -22 153 -37 9 -128
5 -194 -9z"/>
<path d="M8253 3220 c-117 -24 -191 -109 -213 -242 -22 -142 57 -271 190 -310
72 -21 180 -14 242 15 93 43 90 39 92 165 2 131 13 122 -140 119 l-104 -2 0
-37 0 -38 76 0 75 0 -3 -52 c-3 -52 -4 -54 -48 -76 -65 -34 -156 -27 -208 15
-48 39 -70 78 -78 136 -13 95 39 188 124 224 53 22 123 9 178 -33 36 -28 48
-32 64 -24 34 18 44 49 24 71 -48 53 -182 87 -271 69z m107 -285 c-10 -12 -9
-15 6 -16 18 0 18 -1 -1 -8 -25 -11 -35 -5 -35 20 0 13 7 19 21 19 18 0 19 -2
9 -15z"/>
<path d="M10179 3216 c-61 -13 -113 -41 -104 -56 3 -6 -1 -7 -9 -4 -21 8 -73
-67 -92 -134 -42 -143 33 -301 164 -348 58 -21 172 -17 237 7 88 33 165 148
165 247 0 37 -1 39 -35 40 -53 2 -60 12 -23 32 32 17 33 17 40 -4 6 -21 6 -21
7 0 2 39 -59 144 -102 175 -64 46 -157 63 -248 45z m174 -101 c22 -15 48 -47
63 -78 23 -45 26 -59 20 -116 -7 -82 -38 -130 -100 -159 -117 -55 -236 2 -266
127 -15 62 -3 122 36 181 33 50 75 69 149 70 48 0 68 -5 98 -25z"/>
<path d="M9048 2960 c-1 -143 -2 -268 -2 -277 -1 -14 9 -19 46 -21 l47 -3 3
103 3 103 56 3 56 3 53 -83 c79 -124 84 -128 147 -128 l54 0 -22 30 c-12 16
-25 27 -29 25 -4 -3 -14 3 -21 12 -10 12 -10 14 -1 9 6 -4 12 -4 12 -1 0 9
-70 114 -81 121 -17 10 -9 34 12 34 32 0 96 69 104 113 17 88 -23 161 -105
194 -47 19 -74 22 -192 23 l-138 0 -2 -260z m366 210 c8 -8 3 -8 -17 -1 -36
14 -40 14 -31 -1 5 -8 2 -9 -10 -5 -13 5 -17 3 -13 -7 4 -10 0 -12 -14 -9 -10
3 -19 10 -19 16 0 6 3 8 6 4 8 -7 33 16 28 25 -7 10 58 -10 70 -22z m-53 -59
c21 -22 29 -39 29 -66 0 -74 -79 -114 -205 -103 l-40 3 -3 98 -3 97 96 0 c93
0 98 -1 126 -29z"/>
<path d="M11030 3021 c0 -202 4 -245 22 -219 6 9 7 6 3 -10 -9 -33 37 -90 93
-114 36 -16 61 -19 132 -16 79 3 93 6 131 33 26 18 53 50 68 80 25 47 26 58
30 247 l3 198 -51 0 -51 0 0 -188 c0 -168 -2 -191 -20 -225 -11 -20 -21 -40
-23 -44 -3 -10 -44 -16 -107 -17 -68 -1 -115 29 -130 83 -5 20 -10 116 -10
214 l0 177 -45 0 -45 0 0 -199z m462 -166 c-4 -25 -5 -25 -23 -9 -25 23 -24
34 5 34 20 0 22 -4 18 -25z"/>
<path d="M12060 2940 l0 -280 45 0 44 0 3 98 3 97 105 6 c140 8 198 39 219
116 29 104 -6 185 -97 224 -36 16 -69 19 -183 19 l-139 0 0 -280z m306 166
c37 -37 43 -70 20 -115 -21 -39 -56 -51 -151 -51 l-85 0 0 48 c0 26 3 71 6
100 l7 52 84 0 c83 0 86 -1 119 -34z m-26 -176 c-8 -5 -46 -9 -85 -8 l-70 2
75 6 c41 4 80 7 85 8 6 1 3 -3 -5 -8z"/>
<path d="M6290 2935 l0 -35 630 0 630 0 0 35 0 35 -630 0 -630 0 0 -35z"/>
<path d="M13150 2935 l0 -35 223 -1 c122 -1 407 -1 632 0 226 0 440 1 476 1
l67 0 4 35 4 35 -703 0 -703 0 0 -35z m37 19 c-3 -3 -12 -4 -19 -1 -8 3 -5 6
6 6 11 1 17 -2 13 -5z"/>
</g>
</svg>
